<svg xmlns="http://www.w3.org/2000/svg" viewBox="0 0 48 60" x="0px" y="0px">
    <g data-name="icons">
        <rect height="70%" width="90%" x="5%" y="7.5%" rx="5" fill="#42a5f5" />
        <path
            fill="#9342f5"
            d="M24,22.653C21.758,20.825,18.62,20,14,20H12V42H36V20H34C29.38,20,26.242,20.825,24,22.653Zm1,1.8C26.875,22.767,29.668,22,34,22V36a14.554,14.554,0,0,0-9,2.816ZM14,22c4.332,0,7.125.767,9,2.452V38.816A14.554,14.554,0,0,0,14,36Zm0,16a12.656,12.656,0,0,1,7.213,2H14Zm20,2H26.787A12.656,12.656,0,0,1,34,38ZM24,6C10.344,6,4.085,14.959,4.007,23.342H4V34.5a2,2,0,0,0,2,2H8a2,2,0,0,0,2-2v-10a2,2,0,0,0-2-2H6.055C6.63,12.558,15.611,8,24,8s17.37,4.558,17.945,14.5H40a2,2,0,0,0-2,2v10a2,2,0,0,0,2,2h2a2,2,0,0,0,2-2v-11C44,15.071,37.741,6,24,6ZM8,34.5H6v-10H8Zm34,0H40v-10h2Z" />
    </g>
</svg>