<?xml version="1.0" encoding="UTF-8"?>
<!DOCTYPE svg PUBLIC "-//W3C//DTD SVG 1.1//EN" "http://www.w3.org/Graphics/SVG/1.1/DTD/svg11.dtd">
<svg xmlns="http://www.w3.org/2000/svg" version="1.1" width="3464px" height="3464px" style="shape-rendering:geometricPrecision; text-rendering:geometricPrecision; image-rendering:optimizeQuality; fill-rule:evenodd; clip-rule:evenodd" xmlns:xlink="http://www.w3.org/1999/xlink">
<g><path style="opacity:1" fill="#fefefe" d="M -0.5,-0.5 C 1154.17,-0.5 2308.83,-0.5 3463.5,-0.5C 3463.5,1154.17 3463.5,2308.83 3463.5,3463.5C 2308.83,3463.5 1154.17,3463.5 -0.5,3463.5C -0.5,2308.83 -0.5,1154.17 -0.5,-0.5 Z"/></g>
<g><path style="opacity:1" fill="#442929" d="M 2869.5,1016.5 C 2293.5,1015.83 1717.83,1016.5 1142.5,1018.5C 937.5,1018.5 732.5,1018.5 527.5,1018.5C 527.229,1490.5 526.896,1962.5 526.5,2434.5C 731.833,2434.5 937.167,2434.5 1142.5,2434.5C 1142.26,2435.79 1142.6,2436.79 1143.5,2437.5C 1718.17,2437.5 2292.83,2437.5 2867.5,2437.5C 2867.5,2519.17 2867.5,2600.83 2867.5,2682.5C 2778.83,2682.5 2690.17,2682.5 2601.5,2682.5C 1846.17,2682.36 1090.83,2681.7 335.5,2680.5C 336.065,2044.17 336.732,1407.83 337.5,771.5C 1181.5,772.932 2025.5,773.599 2869.5,773.5C 2869.5,854.5 2869.5,935.5 2869.5,1016.5 Z"/></g>
<g><path style="opacity:1" fill="#2d99dd" d="M 2869.5,1016.5 C 3017.33,1016.17 3165,1016.5 3312.5,1017.5C 2589.5,1017.5 1866.5,1017.5 1143.5,1017.5C 1143.5,1490.83 1143.5,1964.17 1143.5,2437.5C 1142.6,2436.79 1142.26,2435.79 1142.5,2434.5C 1142.5,1962.5 1142.5,1490.5 1142.5,1018.5C 1717.83,1016.5 2293.5,1015.83 2869.5,1016.5 Z"/></g>
<g><path style="opacity:1" fill="#0091ea" d="M 3312.5,1017.5 C 3312.5,1490.83 3312.5,1964.17 3312.5,2437.5C 3164.17,2437.5 3015.83,2437.5 2867.5,2437.5C 2292.83,2437.5 1718.17,2437.5 1143.5,2437.5C 1143.5,1964.17 1143.5,1490.83 1143.5,1017.5C 1866.5,1017.5 2589.5,1017.5 3312.5,1017.5 Z"/></g>
<g><path style="opacity:1" fill="#fefefe" d="M 1142.5,1018.5 C 1142.5,1490.5 1142.5,1962.5 1142.5,2434.5C 937.167,2434.5 731.833,2434.5 526.5,2434.5C 526.896,1962.5 527.229,1490.5 527.5,1018.5C 732.5,1018.5 937.5,1018.5 1142.5,1018.5 Z"/></g>
<g><path style="opacity:1" fill="#eff8fd" d="M 2386.5,1260.5 C 2386.83,1260.5 2387.17,1260.5 2387.5,1260.5C 2387.5,1571.5 2387.5,1882.5 2387.5,2193.5C 2428.17,2193.5 2468.83,2193.5 2509.5,2193.5C 2509.5,2193.83 2509.5,2194.17 2509.5,2194.5C 2468.5,2194.5 2427.5,2194.5 2386.5,2194.5C 2386.5,1883.17 2386.5,1571.83 2386.5,1260.5 Z"/></g>
<g><path style="opacity:1" fill="#fefefe" d="M 2387.5,1260.5 C 2428.17,1260.5 2468.83,1260.5 2509.5,1260.5C 2509.5,1396.17 2509.5,1531.83 2509.5,1667.5C 2510.79,1667.74 2511.79,1667.4 2512.5,1666.5C 2541.3,1623.03 2579.97,1591.7 2628.5,1572.5C 2636.17,1570.94 2643.5,1568.61 2650.5,1565.5C 2653.39,1564.76 2656.39,1564.09 2659.5,1563.5C 2669.05,1562.32 2678.39,1560.65 2687.5,1558.5C 2705.69,1557.21 2724.02,1557.21 2742.5,1558.5C 2748.95,1559.94 2755.61,1560.6 2762.5,1560.5C 2765.84,1562.22 2769.51,1562.88 2773.5,1562.5C 2777.94,1563.99 2782.61,1564.99 2787.5,1565.5C 2789.51,1566.92 2791.85,1567.59 2794.5,1567.5C 2798.04,1568.08 2801.37,1569.08 2804.5,1570.5C 2807.94,1572.2 2811.61,1573.54 2815.5,1574.5C 2868.64,1595.45 2912.14,1629.12 2946,1675.5C 2973.9,1714.99 2992.23,1758.66 3001,1806.5C 3003.42,1824.49 3005.59,1842.49 3007.5,1860.5C 3007.78,1881.54 3007.12,1902.54 3005.5,1923.5C 2998.39,2013.22 2961.39,2087.72 2894.5,2147C 2871.65,2165.43 2846.65,2180.26 2819.5,2191.5C 2813.61,2193.13 2807.94,2195.13 2802.5,2197.5C 2799.85,2197.41 2797.51,2198.08 2795.5,2199.5C 2792.57,2199.57 2789.91,2200.23 2787.5,2201.5C 2781.24,2202.22 2775.24,2203.55 2769.5,2205.5C 2755.06,2207.15 2740.73,2208.48 2726.5,2209.5C 2713.12,2209.8 2699.78,2209.46 2686.5,2208.5C 2678.7,2206.72 2670.7,2205.38 2662.5,2204.5C 2661.83,2204.5 2661.17,2204.5 2660.5,2204.5C 2657.55,2202.59 2654.21,2201.59 2650.5,2201.5C 2650.17,2201.5 2649.83,2201.5 2649.5,2201.5C 2646.86,2199.69 2643.86,2198.69 2640.5,2198.5C 2587.55,2180.83 2545.22,2148.83 2513.5,2102.5C 2513.31,2100.09 2511.97,2099.09 2509.5,2099.5C 2509.5,2130.83 2509.5,2162.17 2509.5,2193.5C 2468.83,2193.5 2428.17,2193.5 2387.5,2193.5C 2387.5,1882.5 2387.5,1571.5 2387.5,1260.5 Z"/></g>
<g><path style="opacity:1" fill="#77c1ef" d="M 2386.5,1260.5 C 2427.66,1259.5 2469,1259.17 2510.5,1259.5C 2509.83,1395.5 2510.5,1531.17 2512.5,1666.5C 2511.79,1667.4 2510.79,1667.74 2509.5,1667.5C 2509.5,1531.83 2509.5,1396.17 2509.5,1260.5C 2468.83,1260.5 2428.17,1260.5 2387.5,1260.5C 2387.17,1260.5 2386.83,1260.5 2386.5,1260.5 Z"/></g>
<g><path style="opacity:1" fill="#fefefe" d="M 2253.5,2192.5 C 2204.51,2194.5 2155.18,2195.16 2105.5,2194.5C 2078.78,2120.73 2051.78,2047.06 2024.5,1973.5C 1966.17,1972.83 1907.67,1972.5 1849,1972.5C 1790.16,1972.5 1731.66,1973.17 1673.5,1974.5C 1646.04,2047.22 1619.37,2120.22 1593.5,2193.5C 1545.57,2194.49 1497.57,2194.83 1449.5,2194.5C 1563.24,1902.31 1678.24,1608.64 1794.5,1313.5C 1832.83,1312.33 1871.16,1312.17 1909.5,1313C 2024.46,1606.06 2139.13,1899.22 2253.5,2192.5 Z"/></g>
<g><path style="opacity:1" fill="#0391ea" d="M 1982.5,1860.5 C 1894.17,1862.5 1805.51,1863.16 1716.5,1862.5C 1716.5,1861.17 1716.5,1859.83 1716.5,1858.5C 1759.36,1742.42 1802.53,1626.42 1846,1510.5C 1846.62,1507.29 1848.29,1506.29 1851,1507.5C 1894.92,1625.1 1938.76,1742.76 1982.5,1860.5 Z"/></g>
<g><path style="opacity:1" fill="#93cef5" d="M 2742.5,1558.5 C 2749.4,1558.29 2756.06,1558.96 2762.5,1560.5C 2755.61,1560.6 2748.95,1559.94 2742.5,1558.5 Z"/></g>
<g><path style="opacity:1" fill="#9ad1f6" d="M 2687.5,1558.5 C 2678.39,1560.65 2669.05,1562.32 2659.5,1563.5C 2661.88,1562.11 2664.54,1561.28 2667.5,1561C 2674.12,1559.71 2680.79,1558.88 2687.5,1558.5 Z"/></g>
<g><path style="opacity:1" fill="#a0d4f6" d="M 2762.5,1560.5 C 2766.36,1560.81 2770.03,1561.48 2773.5,1562.5C 2769.51,1562.88 2765.84,1562.22 2762.5,1560.5 Z"/></g>
<g><path style="opacity:1" fill="#86c9f4" d="M 2787.5,1565.5 C 2790.15,1565.41 2792.49,1566.08 2794.5,1567.5C 2791.85,1567.59 2789.51,1566.92 2787.5,1565.5 Z"/></g>
<g><path style="opacity:1" fill="#a3d5f7" d="M 2650.5,1565.5 C 2643.5,1568.61 2636.17,1570.94 2628.5,1572.5C 2635.5,1569.39 2642.83,1567.06 2650.5,1565.5 Z"/></g>
<g><path style="opacity:1" fill="#87c8f4" d="M 2804.5,1570.5 C 2808.71,1570.68 2812.37,1572.01 2815.5,1574.5C 2811.61,1573.54 2807.94,1572.2 2804.5,1570.5 Z"/></g>
<g><path style="opacity:1" fill="#0191ea" d="M 2706.5,1667.5 C 2714.36,1668.49 2722.36,1669.49 2730.5,1670.5C 2771.32,1678.5 2805.15,1698.5 2832,1730.5C 2861.39,1767.99 2877.73,1810.66 2881,1858.5C 2884.9,1909.45 2875.56,1957.79 2853,2003.5C 2832.48,2042.2 2802.31,2070.2 2762.5,2087.5C 2755.61,2089.46 2748.94,2091.8 2742.5,2094.5C 2740.71,2094.37 2739.04,2094.7 2737.5,2095.5C 2728.69,2096.76 2720.02,2098.09 2711.5,2099.5C 2698.5,2100.83 2685.5,2100.83 2672.5,2099.5C 2666.69,2098.14 2660.69,2097.14 2654.5,2096.5C 2653.83,2096.5 2653.17,2096.5 2652.5,2096.5C 2650.9,2094.93 2648.9,2094.26 2646.5,2094.5C 2646.17,2094.5 2645.83,2094.5 2645.5,2094.5C 2640.5,2092.06 2635.17,2090.39 2629.5,2089.5C 2600.65,2078.62 2576.49,2060.95 2557,2036.5C 2520.88,1990.03 2504.05,1937.19 2506.5,1878C 2505.46,1810.74 2529.12,1754.07 2577.5,1708C 2591.51,1695.83 2607.18,1686.33 2624.5,1679.5C 2630.77,1678.08 2636.77,1676.08 2642.5,1673.5C 2644.59,1672.06 2646.92,1671.39 2649.5,1671.5C 2657.77,1671.04 2665.77,1669.71 2673.5,1667.5C 2684.55,1666.23 2695.55,1666.23 2706.5,1667.5 Z"/></g>
<g><path style="opacity:1" fill="#6fbdf2" d="M 2706.5,1667.5 C 2711.18,1667.33 2715.85,1667.5 2720.5,1668C 2724.13,1668.15 2727.47,1668.98 2730.5,1670.5C 2722.36,1669.49 2714.36,1668.49 2706.5,1667.5 Z"/></g>
<g><path style="opacity:1" fill="#6cbbf2" d="M 2673.5,1667.5 C 2665.77,1669.71 2657.77,1671.04 2649.5,1671.5C 2657.2,1669.11 2665.2,1667.77 2673.5,1667.5 Z"/></g>
<g><path style="opacity:1" fill="#6abbf2" d="M 2642.5,1673.5 C 2636.77,1676.08 2630.77,1678.08 2624.5,1679.5C 2630.09,1676.53 2636.09,1674.53 2642.5,1673.5 Z"/></g>
<g><path style="opacity:1" fill="#45aeef" d="M 1716.5,1858.5 C 1716.5,1859.83 1716.5,1861.17 1716.5,1862.5C 1805.51,1863.16 1894.17,1862.5 1982.5,1860.5C 1983.4,1861.21 1983.74,1862.21 1983.5,1863.5C 1894.17,1863.5 1804.83,1863.5 1715.5,1863.5C 1715.5,1862.5 1715.5,1861.5 1715.5,1860.5C 1715.33,1859.51 1715.66,1858.84 1716.5,1858.5 Z"/></g>
<g><path style="opacity:1" fill="#cce8fa" d="M 1715.5,1860.5 C 1715.5,1861.5 1715.5,1862.5 1715.5,1863.5C 1804.83,1863.5 1894.17,1863.5 1983.5,1863.5C 1894,1864.5 1804.33,1864.83 1714.5,1864.5C 1714.23,1862.9 1714.57,1861.57 1715.5,1860.5 Z"/></g>
<g><path style="opacity:1" fill="#2e96df" d="M 3007.5,1860.5 C 3008.87,1880.69 3008.71,1901.02 3007,1921.5C 3006.72,1922.42 3006.22,1923.08 3005.5,1923.5C 3007.12,1902.54 3007.78,1881.54 3007.5,1860.5 Z"/></g>
<g><path style="opacity:1" fill="#78c5f4" d="M 2024.5,1973.5 C 1907.43,1973.17 1790.43,1973.5 1673.5,1974.5C 1731.66,1973.17 1790.16,1972.5 1849,1972.5C 1907.67,1972.5 1966.17,1972.83 2024.5,1973.5 Z"/></g>
<g><path style="opacity:1" fill="#7dc3f3" d="M 2629.5,2089.5 C 2635.17,2090.39 2640.5,2092.06 2645.5,2094.5C 2639.83,2093.61 2634.5,2091.94 2629.5,2089.5 Z"/></g>
<g><path style="opacity:1" fill="#9fd3f6" d="M 2762.5,2087.5 C 2756.36,2090.99 2749.7,2093.32 2742.5,2094.5C 2748.94,2091.8 2755.61,2089.46 2762.5,2087.5 Z"/></g>
<g><path style="opacity:1" fill="#95cff6" d="M 2646.5,2094.5 C 2648.9,2094.26 2650.9,2094.93 2652.5,2096.5C 2650.1,2096.74 2648.1,2096.07 2646.5,2094.5 Z"/></g>
<g><path style="opacity:1" fill="#a1d5f7" d="M 2654.5,2096.5 C 2660.69,2097.14 2666.69,2098.14 2672.5,2099.5C 2666.15,2099.78 2660.15,2098.78 2654.5,2096.5 Z"/></g>
<g><path style="opacity:1" fill="#9bd1f6" d="M 2737.5,2095.5 C 2737.08,2096.22 2736.42,2096.72 2735.5,2097C 2727.56,2098.44 2719.56,2099.28 2711.5,2099.5C 2720.02,2098.09 2728.69,2096.76 2737.5,2095.5 Z"/></g>
<g><path style="opacity:1" fill="#74c2f3" d="M 2513.5,2102.5 C 2512.85,2102.2 2512.18,2101.86 2511.5,2101.5C 2510.83,2132.66 2510.17,2163.66 2509.5,2194.5C 2509.5,2194.17 2509.5,2193.83 2509.5,2193.5C 2509.5,2162.17 2509.5,2130.83 2509.5,2099.5C 2511.97,2099.09 2513.31,2100.09 2513.5,2102.5 Z"/></g>
<g><path style="opacity:1" fill="#50b3f0" d="M 1593.5,2193.5 C 1569.84,2194.83 1545.84,2195.5 1521.5,2195.5C 1497.33,2195.5 1473.33,2195.17 1449.5,2194.5C 1497.57,2194.83 1545.57,2194.49 1593.5,2193.5 Z"/></g>
<g><path style="opacity:1" fill="#51b4f1" d="M 2253.5,2192.5 C 2254.4,2193.21 2254.74,2194.21 2254.5,2195.5C 2204.66,2195.83 2155,2195.5 2105.5,2194.5C 2155.18,2195.16 2204.51,2194.5 2253.5,2192.5 Z"/></g>
<g><path style="opacity:1" fill="#68baf2" d="M 2819.5,2191.5 C 2814.37,2194.66 2808.7,2196.66 2802.5,2197.5C 2807.94,2195.13 2813.61,2193.13 2819.5,2191.5 Z"/></g>
<g><path style="opacity:1" fill="#79c3f3" d="M 2802.5,2197.5 C 2800.49,2198.92 2798.15,2199.59 2795.5,2199.5C 2797.51,2198.08 2799.85,2197.41 2802.5,2197.5 Z"/></g>
<g><path style="opacity:1" fill="#90ccf5" d="M 2640.5,2198.5 C 2643.86,2198.69 2646.86,2199.69 2649.5,2201.5C 2646.08,2201.47 2643.08,2200.47 2640.5,2198.5 Z"/></g>
<g><path style="opacity:1" fill="#7cc3f3" d="M 2650.5,2201.5 C 2654.21,2201.59 2657.55,2202.59 2660.5,2204.5C 2656.79,2204.41 2653.45,2203.41 2650.5,2201.5 Z"/></g>
<g><path style="opacity:1" fill="#6cbaf2" d="M 2787.5,2201.5 C 2781.95,2204.38 2775.95,2205.72 2769.5,2205.5C 2775.24,2203.55 2781.24,2202.22 2787.5,2201.5 Z"/></g>
<g><path style="opacity:1" fill="#79c2f3" d="M 2662.5,2204.5 C 2670.7,2205.38 2678.7,2206.72 2686.5,2208.5C 2678.19,2208.23 2670.19,2206.89 2662.5,2204.5 Z"/></g>
<g><path style="opacity:1" fill="#84c7f4" d="M 2769.5,2205.5 C 2766.1,2206.93 2762.43,2207.76 2758.5,2208C 2747.86,2209.04 2737.19,2209.54 2726.5,2209.5C 2740.73,2208.48 2755.06,2207.15 2769.5,2205.5 Z"/></g>
<g><path style="opacity:1" fill="#bdb7b7" d="M 2867.5,2437.5 C 3015.83,2437.5 3164.17,2437.5 3312.5,2437.5C 3164.67,2438.5 3016.67,2438.83 2868.5,2438.5C 2868.5,2520.17 2868.5,2601.83 2868.5,2683.5C 2779.33,2683.83 2690.33,2683.5 2601.5,2682.5C 2690.17,2682.5 2778.83,2682.5 2867.5,2682.5C 2867.5,2600.83 2867.5,2519.17 2867.5,2437.5 Z"/></g>
</svg>
